HIERARCHY
ROOT Hips
{
  OFFSET 5.84602e-005 68.8428 3.50346
  CHANNELS 6 Xposition Yposition Zposition Zrotation Xrotation Yrotation
  JOINT Spine
  {
    OFFSET 0 8.597 -4.6522
    CHANNELS 3 Zrotation Xrotation Yrotation
    JOINT Spine1
    {
      OFFSET 0 7.8454 0.4098
      CHANNELS 3 Zrotation Xrotation Yrotation
      JOINT Spine2
      {
        OFFSET 0 9.7078 -2.1609
        CHANNELS 3 Zrotation Xrotation Yrotation
        JOINT Neck
        {
          OFFSET 0 21.8761 -0.4549
          CHANNELS 3 Zrotation Xrotation Yrotation
          JOINT Head
          {
            OFFSET 0 12.3537 3.3602
            CHANNELS 3 Zrotation Xrotation Yrotation
            End Site
            {
              OFFSET 0.0001 18.9506 0.5657
            }
          }
        }
        JOINT LeftShoulder
        {
          OFFSET 2.2086 21.1115 7.2329
          CHANNELS 3 Zrotation Xrotation Yrotation
          JOINT LeftArm
          {
            OFFSET 13.1193 3.0282 -4.8998
            CHANNELS 3 Zrotation Xrotation Yrotation
            JOINT LeftForeArm
            {
              OFFSET 27.4081 -0.0973053 -0.2375
              CHANNELS 3 Zrotation Xrotation Yrotation
              JOINT LeftHand
              {
                OFFSET 22.8641 0.0662994 -0.1369
                CHANNELS 3 Zrotation Xrotation Yrotation
                JOINT LeftHandIndex1
                {
                  OFFSET 8.8614 0.775009 2.4612
                  CHANNELS 3 Zrotation Xrotation Yrotation
                  JOINT LeftHandIndex2
                  {
                    OFFSET 3.3146 -0.808304 0.5841
                    CHANNELS 3 Zrotation Xrotation Yrotation
                    JOINT LeftHandIndex3
                    {
                      OFFSET 2.2628 -0.552002 0.3989
                      CHANNELS 3 Zrotation Xrotation Yrotation
                      End Site
                      {
                        OFFSET 1.6102 -0.4807 0.2612
                      }
                    }
                  }
                }
                JOINT LeftHandMiddle1
                {
                  OFFSET 8.9937 0.895004 0.2143
                  CHANNELS 3 Zrotation Xrotation Yrotation
                  JOINT LeftHandMiddle2
                  {
                    OFFSET 4.0984 0.0113983 -0.0242
                    CHANNELS 3 Zrotation Xrotation Yrotation
                    JOINT LeftHandMiddle3
                    {
                      OFFSET 2.2716 0.00689697 -0.0138001
                      CHANNELS 3 Zrotation Xrotation Yrotation
                      End Site
                      {
                        OFFSET 2.0404 -0.1441 0.0027
                      }
                    }
                  }
                }
                JOINT LeftHandRing1
                {
                  OFFSET 8.5234 0.597198 -2.0164
                  CHANNELS 3 Zrotation Xrotation Yrotation
                  JOINT LeftHandRing2
                  {
                    OFFSET 3.7188 -0.188293 -0.2328
                    CHANNELS 3 Zrotation Xrotation Yrotation
                    JOINT LeftHandRing3
                    {
                      OFFSET 2.1191 -0.106598 -0.1332
                      CHANNELS 3 Zrotation Xrotation Yrotation
                      End Site
                      {
                        OFFSET 1.8737 -0.2304 -0.0886
                      }
                    }
                  }
                }
                JOINT LeftHandPinky1
                {
                  OFFSET 7.9094 -0.601089 -3.4825
                  CHANNELS 3 Zrotation Xrotation Yrotation
                  JOINT LeftHandPinky2
                  {
                    OFFSET 2.2874 -0.477005 -0.6314
                    CHANNELS 3 Zrotation Xrotation Yrotation
                    JOINT LeftHandPinky3
                    {
                      OFFSET 1.6774 -0.349396 -0.4633
                      CHANNELS 3 Zrotation Xrotation Yrotation
                      End Site
                      {
                        OFFSET 1.4888 -0.4091 -0.3416
                      }
                    }
                  }
                }
                JOINT LeftHandThumb1
                {
                  OFFSET 1.833 -1.3875 1.3896
                  CHANNELS 3 Zrotation Xrotation Yrotation
                  JOINT LeftHandThumb2
                  {
                    OFFSET 3.4129 -1.121 2.5732
                    CHANNELS 3 Zrotation Xrotation Yrotation
                    JOINT LeftHandThumb3
                    {
                      OFFSET 2.2474 -0.804199 1.6192
                      CHANNELS 3 Zrotation Xrotation Yrotation
                      End Site
                      {
                        OFFSET 1.6527 -0.5689 1.1317
                      }
                    }
                  }
                }
              }
            }
          }
        }
        JOINT RightShoulder
        {
          OFFSET -2.2086 21.1115 7.2329
          CHANNELS 3 Zrotation Xrotation Yrotation
          JOINT RightArm
          {
            OFFSET -13.1216 3.0287 -4.9007
            CHANNELS 3 Zrotation Xrotation Yrotation
            JOINT RightForeArm
            {
              OFFSET -27.4081 -0.0973053 -0.2375
              CHANNELS 3 Zrotation Xrotation Yrotation
              JOINT RightHand
              {
                OFFSET -22.8641 0.0664063 -0.1369
                CHANNELS 3 Zrotation Xrotation Yrotation
                JOINT RightHandIndex1
                {
                  OFFSET -8.8614 0.774994 2.4612
                  CHANNELS 3 Zrotation Xrotation Yrotation
                  JOINT RightHandIndex2
                  {
                    OFFSET -3.3146 -0.808304 0.5841
                    CHANNELS 3 Zrotation Xrotation Yrotation
                    JOINT RightHandIndex3
                    {
                      OFFSET -2.2628 -0.552002 0.3989
                      CHANNELS 3 Zrotation Xrotation Yrotation
                      End Site
                      {
                        OFFSET -1.6102 -0.4807 0.2612
                      }
                    }
                  }
                }
                JOINT RightHandMiddle1
                {
                  OFFSET -8.9937 0.894989 0.2143
                  CHANNELS 3 Zrotation Xrotation Yrotation
                  JOINT RightHandMiddle2
                  {
                    OFFSET -4.0984 0.0113983 -0.0242
                    CHANNELS 3 Zrotation Xrotation Yrotation
                    JOINT RightHandMiddle3
                    {
                      OFFSET -2.2716 0.00691223 -0.0138001
                      CHANNELS 3 Zrotation Xrotation Yrotation
                      End Site
                      {
                        OFFSET -2.0404 -0.1441 0.0027
                      }
                    }
                  }
                }
                JOINT RightHandRing1
                {
                  OFFSET -8.5234 0.597198 -2.0164
                  CHANNELS 3 Zrotation Xrotation Yrotation
                  JOINT RightHandRing2
                  {
                    OFFSET -3.7188 -0.188309 -0.2328
                    CHANNELS 3 Zrotation Xrotation Yrotation
                    JOINT RightHandRing3
                    {
                      OFFSET -2.1191 -0.106598 -0.1332
                      CHANNELS 3 Zrotation Xrotation Yrotation
                      End Site
                      {
                        OFFSET -1.8737 -0.2304 -0.0886
                      }
                    }
                  }
                }
                JOINT RightHandPinky1
                {
                  OFFSET -7.9094 -0.601105 -3.4825
                  CHANNELS 3 Zrotation Xrotation Yrotation
                  JOINT RightHandPinky2
                  {
                    OFFSET -2.2874 -0.477005 -0.6314
                    CHANNELS 3 Zrotation Xrotation Yrotation
                    JOINT RightHandPinky3
                    {
                      OFFSET -1.6774 -0.349396 -0.4633
                      CHANNELS 3 Zrotation Xrotation Yrotation
                      End Site
                      {
                        OFFSET -1.4888 -0.4091 -0.3416
                      }
                    }
                  }
                }
                JOINT RightHandThumb1
                {
                  OFFSET -1.833 -1.38751 1.3896
                  CHANNELS 3 Zrotation Xrotation Yrotation
                  JOINT RightHandThumb2
                  {
                    OFFSET -3.41299 -1.12099 2.5732
                    CHANNELS 3 Zrotation Xrotation Yrotation
                    JOINT RightHandThumb3
                    {
                      OFFSET -2.24741 -0.804108 1.6192
                      CHANNELS 3 Zrotation Xrotation Yrotation
                      End Site
                      {
                        OFFSET -1.6527 -0.5689 1.1317
                      }
                    }
                  }
                }
              }
            }
          }
        }
      }
    }
  }
  JOINT RightUpLeg
  {
    OFFSET -9.1966 3.8861 -0.7581
    CHANNELS 3 Zrotation Xrotation Yrotation
    JOINT RightLeg
    {
      OFFSET -0.7359 -41.0265 0
      CHANNELS 3 Zrotation Xrotation Yrotation
      JOINT RightFoot
      {
        OFFSET 0 -40.2855 0
        CHANNELS 3 Zrotation Xrotation Yrotation
        JOINT RightToeBase
        {
          OFFSET 0 -5.6122 11.7359
          CHANNELS 3 Zrotation Xrotation Yrotation
          End Site
          {
            OFFSET 0 0 7.8731
          }
        }
      }
    }
  }
  JOINT LeftUpLeg
  {
    OFFSET 9.1965 3.8864 -0.7581
    CHANNELS 3 Zrotation Xrotation Yrotation
    JOINT LeftLeg
    {
      OFFSET 0.7359 -41.0268 0
      CHANNELS 3 Zrotation Xrotation Yrotation
      JOINT LeftFoot
      {
        OFFSET 0 -40.2855 0
        CHANNELS 3 Zrotation Xrotation Yrotation
        JOINT LeftToeBase
        {
          OFFSET 0 -5.6122 11.7359
          CHANNELS 3 Zrotation Xrotation Yrotation
          End Site
          {
            OFFSET 0 0 7.8731
          }
        }
      }
    }
  }
}
MOTION
Frames:	4
Frame Time:	0.0333333
7.91026 4.58783 -46.9193 0 0 -0 0.232388 1.09912 -0.102027 0.466862 2.19781 -0.208571 0.466862 2.19781 -0.208571 15.8162 -4.58542 13.3946 0.0283538 9.2876 4.63956 -21.2411 -9.4184 -10.17 -35.244 3.97568 -49.5725 -18.4789 9.80623 -40.4463 -21.0332 39.8189 -11.4819 -5.68745e-007 1.88509e-007 -7.5483e-007 -2.08572e-007 -8.22214e-008 -3.31306e-006 -2.21945e-007 6.22494e-008 9.55227e-007 -5.68745e-007 1.88509e-007 -7.5483e-007 -0.0146012 -8.73556e-005 -4.75392e-006 -3.95343e-007 1.25367e-007 1.00215e-007 -5.68745e-007 1.88509e-007 -7.5483e-007 -0.0187454 -0.00117292 4.80358e-005 -3.95342e-007 1.25363e-007 1.00223e-007 -5.68745e-007 1.88509e-007 -7.5483e-007 -0.0122902 -0.00325527 0.000679115 -3.9534e-007 1.25371e-007 1.00223e-007 -5.68745e-007 1.88509e-007 -7.5483e-007 -2.08572e-007 -8.22214e-008 -3.31306e-006 -2.21945e-007 6.22494e-008 9.55227e-007 19.2437 -10.2377 -3.37204 39.0469 9.45602 53.4894 25.51 14.2454 35.2787 19.9118 -64.6479 -0.182846 -9.38252e-007 -9.7291e-007 2.99494e-006 9.38252e-007 9.72909e-007 -2.99494e-006 -9.38252e-007 -9.7291e-007 2.99494e-006 -9.38252e-007 -9.7291e-007 2.99494e-006 0.0149882 -9.07753e-005 2.83353e-007 -9.38371e-007 -9.72517e-007 2.99507e-006 -9.38252e-007 -9.7291e-007 2.99494e-006 0.0189956 -0.00119423 -6.41554e-005 -9.38374e-007 -9.72404e-007 2.99511e-006 -9.38252e-007 -9.7291e-007 2.99494e-006 0.0122706 -0.00325049 -0.000676827 -1.82588e-006 -1.72715e-007 3.68843e-006 -9.38252e-007 -9.7291e-007 2.99494e-006 9.38252e-007 9.72909e-007 -2.99494e-006 -9.38252e-007 -9.7291e-007 2.99494e-006 -5.90515 -63.2985 -19.3088 -175.274 20.3319 167.973 -2.24984 55.9097 -11.8093 -2.02147e-007 -2.67265e-008 9.29013e-007 5.94727 -63.2564 19.3539 175.319 20.2707 -167.977 2.53848 55.2308 11.5897 2.05751e-007 -1.87992e-008 -5.35212e-008 
7.91026 4.58783 -46.9193 0 0 -0 0.231893 1.04531 -0.101204 0.465749 2.09021 -0.206691 0.465749 2.0902 -0.206691 15.6383 -4.55559 13.2422 0.0320491 9.18611 4.58833 -21.1733 -9.005 -9.8896 -35.3504 4.12001 -49.701 -18.6048 9.91309 -40.6738 -20.436 39.8243 -10.9916 -1.27771e-006 3.37972e-007 -8.70699e-007 -6.00591e-007 3.61301e-008 -3.20854e-006 -1.49447e-006 3.98909e-007 -1.78921e-006 -1.27771e-006 3.37972e-007 -8.70699e-007 -0.014589 -8.80516e-005 -6.10584e-006 -1.49361e-006 3.99142e-007 -1.78916e-006 -1.27771e-006 3.37972e-007 -8.70699e-007 -0.018748 -0.00117434 5.80076e-005 -1.49338e-006 3.99272e-007 -1.78914e-006 -1.27771e-006 3.37972e-007 -8.70699e-007 -0.012249 -0.00324296 0.0006801 -1.49379e-006 3.993e-007 -1.78917e-006 -1.27771e-006 3.37972e-007 -8.70699e-007 -6.00591e-007 3.61301e-008 -3.20854e-006 -1.49447e-006 3.98909e-007 -1.78921e-006 19.5124 -9.792 -3.05391 38.9729 9.36068 53.3526 25.4418 14.2002 35.1821 19.3374 -64.5436 -0.201394 9.39261e-007 9.73162e-007 -2.99154e-006 9.39261e-007 9.73162e-007 -2.99154e-006 9.39262e-007 9.73162e-007 -2.99154e-006 9.39261e-007 9.73162e-007 -2.99154e-006 0.014999 -8.71101e-005 -1.89823e-006 1.83965e-006 1.74384e-007 -3.72758e-006 9.39261e-007 9.73162e-007 -2.99154e-006 0.01901 -0.00119068 -6.36407e-005 1.83913e-006 1.74389e-007 -3.7276e-006 9.39261e-007 9.73162e-007 -2.99154e-006 0.0122736 -0.00324928 -0.000672736 9.39272e-007 9.7282e-007 -2.99168e-006 9.39261e-007 9.73162e-007 -2.99154e-006 9.39261e-007 9.73162e-007 -2.99154e-006 9.39262e-007 9.73162e-007 -2.99154e-006 -5.90515 -63.2985 -19.3088 -175.274 20.3319 167.973 -2.24984 55.9097 -11.8093 -2.02147e-007 -2.67265e-008 9.29013e-007 5.94727 -63.2564 19.3539 175.319 20.2707 -167.977 2.53848 55.2308 11.5897 2.05751e-007 -1.87992e-008 -5.35212e-008 
7.91026 4.58783 -46.9193 0 0 -0 0.231494 1.0022 -0.10054 0.464854 2.00399 -0.205177 0.464854 2.00399 -0.205177 15.4608 -4.52493 13.0897 0.0356349 9.0846 4.5371 -21.1204 -8.67398 -9.66575 -35.4353 4.23578 -49.8035 -18.7053 9.99907 -40.8556 -19.9575 39.8321 -10.5987 -1.97207e-007 6.45181e-008 4.96962e-008 -4.77083e-015 -3.18055e-015 -3.18055e-015 5.91621e-007 -1.93554e-007 -1.49088e-007 -1.97207e-007 6.45181e-008 4.96962e-008 -0.0146434 -8.89784e-005 -5.49281e-007 5.91618e-007 -1.93535e-007 -1.49114e-007 -1.97207e-007 6.45181e-008 4.96962e-008 -0.0187603 -0.00117691 6.01144e-005 5.91616e-007 -1.93531e-007 -1.49126e-007 -1.97207e-007 6.45181e-008 4.96962e-008 -0.0122818 -0.00325111 0.000676098 5.91613e-007 -1.93542e-007 -1.49126e-007 -1.97207e-007 6.45181e-008 4.96962e-008 -4.77083e-015 -3.18055e-015 -3.18055e-015 5.91621e-007 -1.93554e-007 -1.49088e-007 19.7256 -9.43409 -2.80124 38.9135 9.2846 53.243 25.3871 14.1642 35.1049 18.8795 -64.46 -0.214131 2.85957e-006 -2.6771e-006 -2.66577e-006 -1.86073e-006 -2.19185e-006 -2.03605e-007 1.94682e-006 -1.88016e-006 -1.89597e-006 2.85957e-006 -2.6771e-006 -2.66577e-006 0.0149953 -9.17874e-005 -3.68397e-006 1.94604e-006 -1.8804e-006 -1.89572e-006 2.85957e-006 -2.6771e-006 -2.66577e-006 0.0189879 -0.00119058 -6.09983e-005 1.94581e-006 -1.88041e-006 -1.89567e-006 2.85957e-006 -2.6771e-006 -2.66577e-006 0.0122737 -0.00325028 -0.000677991 1.94614e-006 -1.88018e-006 -1.89579e-006 2.85957e-006 -2.6771e-006 -2.66577e-006 -1.86073e-006 -2.19185e-006 -2.03605e-007 1.94682e-006 -1.88016e-006 -1.89597e-006 -5.90515 -63.2985 -19.3088 -175.274 20.3319 167.973 -2.24984 55.9097 -11.8093 -2.02147e-007 -2.67265e-008 9.29013e-007 5.94727 -63.2564 19.3539 175.319 20.2707 -167.977 2.53848 55.2308 11.5897 2.05751e-007 -1.87992e-008 -5.35212e-008 
7.91026 4.58783 -46.9193 0 0 -0 0.231097 0.959047 -0.0998732 0.463964 1.91768 -0.203658 0.463964 1.91768 -0.203658 15.2832 -4.49387 12.9373 0.0391365 8.98309 4.4859 -21.0688 -8.34268 -9.44236 -35.52 4.3517 -49.9059 -18.8056 10.0854 -41.0373 -19.4784 39.8425 -10.2054 3.93985e-007 -1.30666e-007 -9.90354e-008 -3.93985e-007 1.30666e-007 9.90354e-008 -1.96992e-007 6.53329e-008 4.95177e-008 3.93985e-007 -1.30666e-007 -9.90354e-008 -0.0146064 -8.77528e-005 -4.56256e-006 8.77993e-008 7.36476e-009 1.07001e-006 3.93985e-007 -1.30666e-007 -9.90354e-008 -0.0187546 -0.00117501 5.66533e-005 -1.96991e-007 6.5325e-008 4.95304e-008 3.93985e-007 -1.30666e-007 -9.90354e-008 -0.0122723 -0.00324983 0.000675103 -1.9699e-007 6.53289e-008 4.95303e-008 3.93985e-007 -1.30666e-007 -9.90354e-008 -3.93985e-007 1.30666e-007 9.90354e-008 -1.96992e-007 6.53329e-008 4.95177e-008 19.9371 -9.07514 -2.55008 38.8541 9.20865 53.1334 25.3325 14.1283 35.0276 18.4228 -64.3764 -0.225319 1.76556e-031 3.18055e-015 -3.18055e-015 -9.4091e-007 -9.73708e-007 2.98603e-006 4.77083e-015 -9.54166e-015 -6.36111e-015 1.76556e-031 3.18055e-015 -3.18055e-015 0.0149847 -9.70694e-005 -1.97446e-006 2.64834e-031 -4.77083e-015 3.18055e-015 1.76556e-031 3.18055e-015 -3.18055e-015 0.0189915 -0.00119549 -6.20674e-005 -6.36111e-015 -4.77083e-015 6.36111e-015 1.76556e-031 3.18055e-015 -3.18055e-015 0.0122551 -0.00324409 -0.000675612 3.18055e-015 0 6.36111e-015 1.76556e-031 3.18055e-015 -3.18055e-015 -9.4091e-007 -9.73708e-007 2.98603e-006 4.77083e-015 -9.54166e-015 -6.36111e-015 -5.90515 -63.2985 -19.3088 -175.274 20.3319 167.973 -2.24984 55.9097 -11.8093 -2.02147e-007 -2.67265e-008 9.29013e-007 5.94727 -63.2564 19.3539 175.319 20.2707 -167.977 2.53848 55.2308 11.5897 2.05751e-007 -1.87992e-008 -5.35212e-008 
